<svg width="800" height="500" xmlns="http://www.w3.org/2000/svg">
  <!-- Background -->
  <rect width="800" height="500" fill="white" />
  
  <!-- Chart title -->
  <text x="400" y="40" font-family="Arial" font-size="24" font-weight="bold" text-anchor="middle">ZO2 Memory Usage Comparison</text>
  
  <!-- Y-axis -->
  <line x1="100" y1="80" x2="100" y2="420" stroke="#333" stroke-width="2" />
  <!-- Y-axis labels -->
  <text x="95" y="420" font-family="Arial" font-size="12" text-anchor="end" dominant-baseline="middle">0</text>
  <text x="95" y="350" font-family="Arial" font-size="12" text-anchor="end" dominant-baseline="middle">10</text>
  <text x="95" y="280" font-family="Arial" font-size="12" text-anchor="end" dominant-baseline="middle">20</text>
  <text x="95" y="210" font-family="Arial" font-size="12" text-anchor="end" dominant-baseline="middle">30</text>
  <text x="95" y="140" font-family="Arial" font-size="12" text-anchor="end" dominant-baseline="middle">40</text>
  <text x="95" y="80" font-family="Arial" font-size="12" text-anchor="end" dominant-baseline="middle">70</text>
  
  <!-- Y-axis title -->
  <text x="50" y="250" font-family="Arial" font-size="14" text-anchor="middle" transform="rotate(-90, 50, 250)">Memory Usage (GB)</text>
  
  <!-- X-axis -->
  <line x1="100" y1="420" x2="700" y2="420" stroke="#333" stroke-width="2" />
  
  <!-- X-axis labels -->
  <text x="200" y="440" font-family="Arial" font-size="14" text-anchor="middle">OPT-6.7B</text>
  <text x="350" y="440" font-family="Arial" font-size="14" text-anchor="middle">OPT-13B</text>
  <text x="500" y="440" font-family="Arial" font-size="14" text-anchor="middle">OPT-30B</text>
  <text x="650" y="440" font-family="Arial" font-size="14" text-anchor="middle">OPT-175B</text>
  
  <!-- OPT-6.7B Group -->
  <!-- AdamW -->
  <rect x="150" y="100" width="30" height="320" fill="#1f77b4" />
  <text x="165" y="90" font-family="Arial" font-size="12" text-anchor="middle">68</text>
  
  <!-- SGD -->
  <rect x="185" y="222" width="30" height="198" fill="#ff7f0e" />
  <text x="200" y="212" font-family="Arial" font-size="12" text-anchor="middle">32</text>
  
  <!-- MeZO -->
  <rect x="220" y="295" width="30" height="125" fill="#2ca02c" />
  <text x="235" y="285" font-family="Arial" font-size="12" text-anchor="middle">16</text>
  
  <!-- ZO2 -->
  <rect x="255" y="385" width="30" height="35" fill="#d62728" />
  <text x="270" y="375" font-family="Arial" font-size="12" text-anchor="middle">4</text>
  
  <!-- OPT-13B Group -->
  <!-- X mark for AdamW -->
  <text x="310" y="420" font-family="Arial" font-size="20" text-anchor="middle" font-weight="bold">x</text>
  
  <!-- SGD -->
  <rect x="335" y="130" width="30" height="290" fill="#ff7f0e" />
  <text x="350" y="120" font-family="Arial" font-size="12" text-anchor="middle">57</text>
  
  <!-- MeZO -->
  <rect x="370" y="230" width="30" height="190" fill="#2ca02c" />
  <text x="385" y="220" font-family="Arial" font-size="12" text-anchor="middle">29</text>
  
  <!-- ZO2 -->
  <rect x="405" y="370" width="30" height="50" fill="#d62728" />
  <text x="420" y="360" font-family="Arial" font-size="12" text-anchor="middle">6</text>
  
  <!-- OPT-30B Group -->
  <!-- X mark for AdamW -->
  <text x="460" y="420" font-family="Arial" font-size="20" text-anchor="middle" font-weight="bold">x</text>
  
  <!-- X mark for SGD -->
  <text x="495" y="420" font-family="Arial" font-size="20" text-anchor="middle" font-weight="bold">x</text>
  
  <!-- MeZO -->
  <rect x="530" y="112" width="30" height="308" fill="#2ca02c" />
  <text x="545" y="102" font-family="Arial" font-size="12" text-anchor="middle">63</text>
  
  <!-- ZO2 -->
  <rect x="565" y="350" width="30" height="70" fill="#d62728" />
  <text x="580" y="340" font-family="Arial" font-size="12" text-anchor="middle">8</text>
  
  <!-- OPT-175B Group -->
  <!-- X mark for AdamW -->
  <text x="610" y="420" font-family="Arial" font-size="20" text-anchor="middle" font-weight="bold">x</text>
  
  <!-- X mark for SGD -->
  <text x="645" y="420" font-family="Arial" font-size="20" text-anchor="middle" font-weight="bold">x</text>
  
  <!-- X mark for MeZO -->
  <text x="680" y="420" font-family="Arial" font-size="20" text-anchor="middle" font-weight="bold">x</text>
  
  <!-- ZO2 -->
  <rect x="650" y="287" width="30" height="133" fill="#d62728" />
  <text x="665" y="277" font-family="Arial" font-size="12" text-anchor="middle">18</text>
  
  <!-- Legend -->
  <rect x="600" y="50" width="15" height="15" fill="#1f77b4" />
  <text x="620" y="62" font-family="Arial" font-size="12" dominant-baseline="middle">AdamW</text>
  
  <rect x="600" y="75" width="15" height="15" fill="#ff7f0e" />
  <text x="620" y="87" font-family="Arial" font-size="12" dominant-baseline="middle">SGD</text>
  
  <rect x="600" y="100" width="15" height="15" fill="#2ca02c" />
  <text x="620" y="112" font-family="Arial" font-size="12" dominant-baseline="middle">MeZO</text>
  
  <rect x="600" y="125" width="15" height="15" fill="#d62728" />
  <text x="620" y="137" font-family="Arial" font-size="12" dominant-baseline="middle">ZO2</text>
  
  <!-- Horizontal grid lines -->
  <line x1="100" y1="350" x2="700" y2="350" stroke="#ddd" stroke-width="1" stroke-dasharray="5,5" />
  <line x1="100" y1="280" x2="700" y2="280" stroke="#ddd" stroke-width="1" stroke-dasharray="5,5" />
  <line x1="100" y1="210" x2="700" y2="210" stroke="#ddd" stroke-width="1" stroke-dasharray="5,5" />
  <line x1="100" y1="140" x2="700" y2="140" stroke="#ddd" stroke-width="1" stroke-dasharray="5,5" />
  <line x1="100" y1="80" x2="700" y2="80" stroke="#ddd" stroke-width="1" stroke-dasharray="5,5" />
</svg> 